<?xml version="1.0" encoding="UTF-8"?>
<svg version="1.1" xmlns="http://www.w3.org/2000/svg" width="775" height="154">
<path d="M0 0 C-2.18805179 7.70501937 -4.82146433 15.19927448 -7.60546875 22.70703125 C-8.04836746 23.90825119 -8.49126617 25.10947113 -8.94758606 26.34709167 C-9.88288914 28.88336666 -10.82015443 31.41890396 -11.7590332 33.95385742 C-12.93715291 37.13484094 -14.11174452 40.31711135 -15.28503227 43.49987984 C-19.67905031 55.41805782 -24.09778704 67.32646184 -28.61328125 79.19921875 C-28.94482712 80.07173782 -29.27637299 80.9442569 -29.6179657 81.84321594 C-29.91975235 82.63318466 -30.221539 83.42315338 -30.5324707 84.23706055 C-30.92412163 85.26237129 -30.92412163 85.26237129 -31.32368469 86.30839539 C-32 88 -32 88 -33 90 C-21.12 90 -9.24 90 3 90 C3 99.9 3 109.8 3 120 C-12.84 120 -28.68 120 -45 120 C-45.66 122.97 -46.32 125.94 -47 129 C-47.51695584 130.60955538 -48.0709533 132.2086884 -48.69140625 133.78125 C-48.99626953 134.55984375 -49.30113281 135.3384375 -49.61523438 136.140625 C-49.92783203 136.91921875 -50.24042969 137.6978125 -50.5625 138.5 C-50.87896484 139.30953125 -51.19542969 140.1190625 -51.52148438 140.953125 C-53.85254854 146.85254854 -53.85254854 146.85254854 -55 148 C-56.34072817 148.09527037 -57.68642503 148.1218877 -59.03053284 148.12025452 C-59.89856537 148.12162918 -60.7665979 148.12300385 -61.66093445 148.12442017 C-62.62046524 148.12082489 -63.57999603 148.11722961 -64.56860352 148.11352539 C-65.57336731 148.11367142 -66.5781311 148.11381744 -67.61334229 148.1139679 C-70.95188517 148.1132683 -74.29037305 148.10547374 -77.62890625 148.09765625 C-79.93676218 148.09579224 -82.24461851 148.09436826 -84.55247498 148.09336853 C-90.64017826 148.08954204 -96.72785786 148.07971065 -102.81555176 148.06866455 C-109.02221354 148.05845323 -115.22887913 148.05387151 -121.43554688 148.04882812 C-133.62370835 148.0380885 -145.81185221 148.02101052 -158 148 C-157.04644387 146.87826011 -156.09156825 145.75764179 -155.13613892 144.63749695 C-154.6045347 144.01333232 -154.07293049 143.38916769 -153.52521706 142.74608898 C-151.73177111 140.69292797 -149.83376301 138.81117248 -147.8359375 136.95703125 C-146.74152344 135.93512695 -146.74152344 135.93512695 -145.625 134.89257812 C-144.51125 133.86293945 -144.51125 133.86293945 -143.375 132.8125 C-141.88232707 131.42369864 -140.39012422 130.03439183 -138.8984375 128.64453125 C-138.24536621 128.03971924 -137.59229492 127.43490723 -136.91943359 126.81176758 C-134.90856722 124.91369592 -132.95528254 122.95528254 -131 121 C-145.19 120.67 -159.38 120.34 -174 120 C-174 110.1 -174 100.2 -174 90 C-171.71570068 90.04825928 -169.43140137 90.09651855 -167.07788086 90.14624023 C-159.4745394 90.29568978 -151.87208669 90.36082169 -144.26737118 90.38603115 C-139.66217136 90.40382485 -135.06077845 90.44874133 -130.45678711 90.55883789 C-107.88901809 92.22705742 -107.88901809 92.22705742 -88.12721252 83.72523499 C-85.86383055 81.18839945 -83.91530512 78.58857819 -82.12184143 75.70204163 C-80.60196506 73.39610714 -78.71608583 71.7685056 -76.5625 70.0625 C-73.18140865 67.20719392 -70.10360987 64.12085378 -67 60.96875 C-64.43694772 58.44574541 -61.72654176 56.12437183 -59 53.78125 C-56.91662922 51.9257479 -54.95718793 49.98776899 -53 48 C-49.79970478 44.74970017 -46.45775424 41.75275755 -43 38.78125 C-40.91662922 36.9257479 -38.95718793 34.98776899 -37 33 C-33.79970478 29.74970017 -30.45775424 26.75275755 -27 23.78125 C-24.21114467 21.29742572 -21.62313017 18.63288563 -19.00390625 15.97265625 C-16.42582317 13.43477719 -13.70423174 11.09383447 -10.95703125 8.7421875 C-8.31289491 6.38832561 -5.87588523 3.85704135 -3.4453125 1.28515625 C-2 0 -2 0 0 0 Z " fill="#FFFFFF" transform="translate(174,4)"/>
<path d="M0 0 C36.63 0 73.26 0 111 0 C111 8.58 111 17.16 111 26 C84.6 26 58.2 26 31 26 C31 36.56 31 47.12 31 58 C55.42 58 79.84 58 105 58 C105 66.58 105 75.16 105 84 C80.58 84 56.16 84 31 84 C31 96.87 31 109.74 31 123 C58.39 123 85.78 123 114 123 C114 131.58 114 140.16 114 149 C76.38 149 38.76 149 0 149 C0 99.83 0 50.66 0 0 Z " fill="#FFFFFF" transform="translate(527,2)"/>
<path d="M0 0 C9.26991037 7.82148688 14.39678419 17.58154601 18.3125 28.96484375 C18.3125 29.95484375 18.3125 30.94484375 18.3125 31.96484375 C13.31551117 33.30966178 8.31549492 34.64254603 3.3125 35.96484375 C2.14847656 36.27292969 0.98445312 36.58101562 -0.21484375 36.8984375 C-1.25769531 37.16785156 -2.30054688 37.43726563 -3.375 37.71484375 C-4.30699219 37.9571875 -5.23898437 38.19953125 -6.19921875 38.44921875 C-8.6875 38.96484375 -8.6875 38.96484375 -12.6875 38.96484375 C-12.89503906 38.33578125 -13.10257813 37.70671875 -13.31640625 37.05859375 C-16.87266805 27.17843543 -21.71766625 21.37075582 -31.2578125 16.875 C-40.35519707 13.46713729 -49.76336547 14.4664774 -58.6875 17.96484375 C-68.08819514 23.16764227 -73.67969823 31.84243393 -76.6875 41.96484375 C-81.20415539 60.75002414 -80.65821117 84.29036696 -70.37890625 101.10546875 C-66.20423205 107.21474806 -61.31221027 110.44246544 -54.5625 113.27734375 C-44.88801429 114.99378476 -35.30340423 115.14676102 -26.6875 109.96484375 C-18.37112269 104.00560332 -13.90365726 93.71593567 -11.6875 83.96484375 C-5.24600777 84.60628267 0.61707383 86.51229644 6.75 88.52734375 C7.76771484 88.85669922 8.78542969 89.18605469 9.83398438 89.52539062 C12.32851826 90.33347907 14.82123483 91.14674503 17.3125 91.96484375 C19.12969061 99.66032149 15.33030834 106.34654653 11.59375 113.046875 C2.40090498 127.78365067 -9.73199039 136.94973816 -26.6875 140.96484375 C-45.96296574 144.29697708 -66.2967002 142.24004362 -82.6875 130.96484375 C-99.62904413 117.96379256 -107.63837021 100.87848128 -111.15625 80.2109375 C-111.44372431 77.78736935 -111.60079611 75.40386182 -111.6875 72.96484375 C-111.72746094 71.93488281 -111.76742187 70.90492187 -111.80859375 69.84375 C-112.26533557 46.17377662 -107.75801632 23.9044625 -91.00390625 6.21484375 C-67.48491008 -16.62991475 -26.43313517 -20.01695265 0 0 Z " fill="#FFFFFF" transform="translate(756.6875,12.03515625)"/>
<path d="M0 0 C10.89 0 21.78 0 33 0 C35.71123826 6.77809566 38.26625917 13.49469968 40.58203125 20.40234375 C40.91341599 21.38255493 41.24480072 22.36276611 41.58622742 23.37268066 C42.29604195 25.47244083 43.00473837 27.57257926 43.71240234 29.67306519 C45.58932328 35.24264896 47.47565451 40.80903686 49.36328125 46.375 C49.74698883 47.50650986 50.13069641 48.63801971 50.52603149 49.80381775 C55.92496819 65.69875225 61.47455316 81.54155376 67.03385925 97.38098145 C68.03998823 100.24863337 69.03895376 103.11686129 70 106 C76.61154525 86.80294851 83.15415054 67.58358055 89.5703125 48.3203125 C89.92629107 47.25161391 89.92629107 47.25161391 90.28946114 46.16132545 C92.68170071 38.97795356 95.07043845 31.79342413 97.45483398 24.60744476 C98.3558441 21.89272845 99.25792953 19.17837012 100.16016769 16.46406174 C100.78881019 14.57120146 101.41573835 12.67777212 102.04263306 10.78433228 C102.41826385 9.65417694 102.79389465 8.52402161 103.1809082 7.35961914 C103.50952347 6.36853653 103.83813873 5.37745392 104.17671204 4.3563385 C105 2 105 2 106 0 C116.89 0 127.78 0 139 0 C135.62463964 11.25120119 135.62463964 11.25120119 133.92553711 16.03320312 C133.54274094 17.11418777 133.15994476 18.19517242 132.76554871 19.30891418 C132.35694107 20.454785 131.94833344 21.60065582 131.52734375 22.78125 C131.09194778 24.00813034 130.65655182 25.23501068 130.20796204 26.49906921 C129.03155823 29.81332828 127.85195601 33.12644002 126.67152405 36.4392662 C125.93352604 38.51115669 125.19640833 40.5833582 124.45959473 42.65567017 C111.83133871 78.17277152 99.18932096 113.68665677 86 149 C74.78 149 63.56 149 52 149 C50.92105469 145.93332031 49.84210938 142.86664063 48.73046875 139.70703125 C40.65176424 116.76200273 32.53000391 93.83321405 24.3125 70.9375 C23.52196427 68.73364559 22.73143689 66.52978818 21.94091797 64.32592773 C18.49352674 54.71794965 15.04158042 45.1116492 11.57771301 35.50959778 C10.15383639 31.56009704 8.73357008 27.6093043 7.3140564 23.65823364 C6.65194991 21.81830026 5.98810011 19.97899318 5.32241821 18.14035034 C4.41510607 15.63414132 3.51352916 13.12594098 2.61328125 10.6171875 C2.211698 9.51503151 2.211698 9.51503151 1.80200195 8.39060974 C0.7540202 5.45445168 0 3.14359257 0 0 Z " fill="#FFFFFF" transform="translate(200,2)"/>
<path d="M0 0 C39.27 0 78.54 0 119 0 C119 8.58 119 17.16 119 26 C104.48 26 89.96 26 75 26 C75 66.59 75 107.18 75 149 C64.77 149 54.54 149 44 149 C44 108.41 44 67.82 44 26 C29.48 26 14.96 26 0 26 C0 17.42 0 8.84 0 0 Z " fill="#FFFFFF" transform="translate(395,2)"/>
<path d="M0 0 C10.23 0 20.46 0 31 0 C31 49.17 31 98.34 31 149 C20.77 149 10.54 149 0 149 C0 99.83 0 50.66 0 0 Z " fill="#FFFFFF" transform="translate(352,2)"/>
<path d="M0 0 C-2.18805179 7.70501937 -4.82146433 15.19927448 -7.60546875 22.70703125 C-8.04836746 23.90825119 -8.49126617 25.10947113 -8.94758606 26.34709167 C-9.88288914 28.88336666 -10.82015443 31.41890396 -11.7590332 33.95385742 C-12.93715291 37.13484094 -14.11174452 40.31711135 -15.28503227 43.49987984 C-19.67905031 55.41805782 -24.09778704 67.32646184 -28.61328125 79.19921875 C-28.94482712 80.07173782 -29.27637299 80.9442569 -29.6179657 81.84321594 C-29.91975235 82.63318466 -30.221539 83.42315338 -30.5324707 84.23706055 C-30.92412163 85.26237129 -30.92412163 85.26237129 -31.32368469 86.30839539 C-32 88 -32 88 -33 90 C-53.79 90 -74.58 90 -96 90 C-89.41384703 82.31615487 -82.6371271 75.324507 -74.96484375 68.74609375 C-72.18438168 66.27518611 -69.60881782 63.6183306 -67 60.96875 C-64.43694772 58.44574541 -61.72654176 56.12437183 -59 53.78125 C-56.91662922 51.9257479 -54.95718793 49.98776899 -53 48 C-49.79970478 44.74970017 -46.45775424 41.75275755 -43 38.78125 C-40.91662922 36.9257479 -38.95718793 34.98776899 -37 33 C-33.79970478 29.74970017 -30.45775424 26.75275755 -27 23.78125 C-24.21114467 21.29742572 -21.62313017 18.63288563 -19.00390625 15.97265625 C-16.42582317 13.43477719 -13.70423174 11.09383447 -10.95703125 8.7421875 C-8.31289491 6.38832561 -5.87588523 3.85704135 -3.4453125 1.28515625 C-2 0 -2 0 0 0 Z " fill="#EF7939" transform="translate(174,4)"/>
<path d="M0 0 C-1.37527021 1.60265987 -2.75151762 3.20448695 -4.13134766 4.80322266 C-5.41799445 6.3157975 -6.68491655 7.84530074 -7.93505859 9.38818359 C-16.99600439 20.42621797 -24.64695952 28.33757625 -39.3125 29.875 C-42.77395178 30.18385457 -46.23468903 30.45072585 -49.70166016 30.68945312 C-79.41141306 33.48670003 -110.5277601 47.96834551 -134 66 C-135.04220703 66.78117187 -135.04220703 66.78117187 -136.10546875 67.578125 C-140.78044361 71.30098828 -144.31737733 75.91664372 -147.984375 80.609375 C-150 83 -150 83 -153 85 C-146.69862206 60.63467198 -124.16744768 40.5828856 -103.5234375 27.80859375 C-100.06247778 25.77577718 -96.55716746 23.85670042 -93 22 C-92.3905957 21.67435059 -91.78119141 21.34870117 -91.15332031 21.01318359 C-64.20663408 6.77628162 -30.54367739 -1.05931829 0 0 Z " fill="#FFFFFF" transform="translate(153,2)"/>
<path d="M0 0 C0.82978363 -0.00073013 1.65956726 -0.00146027 2.51449585 -0.00221252 C5.2475604 0.00126114 7.97890445 0.04011036 10.71166992 0.0793457 C12.61023528 0.08867465 14.5088127 0.09579038 16.40739441 0.1007843 C21.39718024 0.11984769 26.38623489 0.16894292 31.37573242 0.2243042 C36.47003285 0.27551084 41.56445177 0.29830138 46.65893555 0.32348633 C56.64949065 0.37706219 66.63950379 0.46236714 76.62963867 0.56762695 C74.64402445 10.02548218 74.64402445 10.02548218 72.93823242 14.34887695 C72.63336914 15.1274707 72.32850586 15.90606445 72.0144043 16.70825195 C71.70180664 17.4868457 71.38920898 18.26543945 71.06713867 19.06762695 C70.75067383 19.8771582 70.43420898 20.68668945 70.1081543 21.52075195 C67.77709013 27.4201755 67.77709013 27.4201755 66.62963867 28.56762695 C65.28891051 28.66289732 63.94321364 28.68951465 62.59910583 28.68788147 C61.7310733 28.68925613 60.86304077 28.6906308 59.96870422 28.69204712 C59.00917343 28.68845184 58.04964264 28.68485657 57.06103516 28.68115234 C56.05627136 28.68129837 55.05150757 28.6814444 54.01629639 28.68159485 C50.6777535 28.68089525 47.33926563 28.67310069 44.00073242 28.6652832 C41.69287649 28.66341919 39.38502016 28.66199521 37.0771637 28.66099548 C30.98946041 28.657169 24.90178081 28.6473376 18.81408691 28.6362915 C12.60742514 28.62608019 6.40075955 28.62149846 0.1940918 28.61645508 C-11.99406968 28.60571545 -24.18221354 28.58863747 -36.37036133 28.56762695 C-35.41646588 27.44556381 -34.46126188 26.32461302 -33.50550842 25.20413208 C-32.9737201 24.57978334 -32.44193178 23.95543461 -31.89402866 23.31216621 C-30.1120045 21.27181853 -28.22741093 19.40153887 -26.24145508 17.55981445 C-25.51635742 16.88305664 -24.79125977 16.20629883 -24.04418945 15.5090332 C-23.30620117 14.82711914 -22.56821289 14.14520508 -21.80786133 13.44262695 C-20.32673351 12.06573141 -18.84624858 10.68814393 -17.36645508 9.30981445 C-16.71862061 8.71023926 -16.07078613 8.11066406 -15.40332031 7.49291992 C-13.26163002 5.54759545 -13.26163002 5.54759545 -11.26644897 2.98277283 C-7.53870219 -0.12592186 -4.63799136 -0.10732542 0 0 Z " fill="#EF7939" transform="translate(52.370361328125,123.432373046875)"/>
</svg>
